<svg width="100" height="100" viewBox="0 0 100 100" fill="none" xmlns="http://www.w3.org/2000/svg">
<circle cx="50" cy="50" r="50" fill="url(#paint0_linear_654_2322)"/>
<path fill-rule="evenodd" clip-rule="evenodd" d="M32.2751 24.0241C34.8517 21.4475 38.3463 20 41.9901 20H59.248C62.846 20 66.2967 21.4293 68.8408 23.9735L74.2499 29.3825C76.5605 31.6931 76.5605 35.4394 74.2499 37.75V37.75C71.9393 40.0606 68.1931 40.0606 65.8825 37.75L62.9242 34.7916C61.03 32.8975 58.4609 31.8333 55.7821 31.8333H46.8917C43.2478 31.8333 39.7532 33.2808 37.1766 35.8574L36.8574 36.1766C34.2808 38.7532 32.8333 42.2478 32.8333 45.8917V53.2749C32.8333 56.9187 34.2808 60.4133 36.8574 62.9899L37.1766 63.3091C39.7532 65.8857 43.2478 67.3332 46.8917 67.3332H55.7821C58.4609 67.3332 61.03 66.2691 62.9242 64.3749L65.8825 61.4166C68.1931 59.106 71.9393 59.106 74.2499 61.4166V61.4166C76.5605 63.7272 76.5605 67.4734 74.2499 69.784L68.8408 75.1931C66.2967 77.7373 62.846 79.1665 59.248 79.1665H41.9901C38.3463 79.1665 34.8517 77.719 32.2751 75.1425L25.0241 67.8914C22.4475 65.3149 21 61.8202 21 58.1764V40.9901C21 37.3463 22.4475 33.8517 25.0241 31.2751L32.2751 24.0241Z" fill="white"/>
<defs>
<linearGradient id="paint0_linear_654_2322" x1="50" y1="0" x2="50" y2="100" gradientUnits="userSpaceOnUse">
<stop stop-color="#FF1183"/>
<stop offset="1" stop-color="#9A50C0"/>
</linearGradient>
</defs>
</svg>
