<svg width="1512" height="910" viewBox="0 0 1512 910" fill="none" xmlns="http://www.w3.org/2000/svg">
<path opacity="0.05" d="M282.481 51.7758C288.836 40.3419 297.464 30.3291 307.835 22.3541L342.048 0C733.38 0.000189055 1120.67 2.93386e-05 1512 2.28505e-05V910H0.000123209L0 560.077L282.481 51.7758Z" fill="#3190FF"/>
<path opacity="0.03" fill-rule="evenodd" clip-rule="evenodd" d="M934.981 17.2914C951.086 6.0362 970.262 -9.05878e-07 989.913 0L1234.72 1.12855e-05C1245.39 1.17775e-05 1255.99 1.78137 1266.08 5.2706L1512 90.351L1512 910L367 910L617.556 259.11C624.417 241.288 636.446 225.921 652.102 214.98L934.981 17.2914Z" fill="white"/>
<path opacity="0.03" fill-rule="evenodd" clip-rule="evenodd" d="M1512 183L1293.24 193.67C1270.69 194.77 1249.25 203.775 1232.69 219.103L1012.64 422.748C995.437 438.671 984.659 460.336 982.343 483.656L940 910H1512V183Z" fill="#3190FF"/>
</svg>