<svg width="102" height="23" viewBox="0 0 102 23" fill="none" xmlns="http://www.w3.org/2000/svg">
<path fill-rule="evenodd" clip-rule="evenodd" d="M3.78451 1.17157C4.53466 0.421427 5.55207 0 6.61293 0H12.5537C13.6146 0 14.632 0.421426 15.3821 1.17157L17.25 3.03942C17.9985 3.78792 17.9985 5.00149 17.25 5.74999V5.74999C16.5015 6.49849 15.2879 6.49849 14.5394 5.74999L13.5811 4.79166C12.9675 4.17805 12.1352 3.83333 11.2675 3.83333H8.20075C7.13989 3.83333 6.12247 4.25475 5.37233 5.0049L5.0049 5.37232C4.25475 6.12247 3.83333 7.13988 3.83333 8.20075V10.9659C3.83333 12.0267 4.25475 13.0442 5.0049 13.7943L5.37233 14.1617C6.12247 14.9119 7.13989 15.3333 8.20075 15.3333H11.2675C12.1352 15.3333 12.9675 14.9886 13.5811 14.375L14.5394 13.4166C15.2879 12.6681 16.5015 12.6681 17.25 13.4166V13.4166C17.9985 14.1651 17.9985 15.3787 17.25 16.1272L15.3821 17.9951C14.632 18.7452 13.6146 19.1666 12.5537 19.1666H6.61294C5.55207 19.1666 4.53466 18.7452 3.78451 17.9951L1.17157 15.3821C0.421428 14.632 0 13.6146 0 12.5537V6.61294C0 5.55207 0.421428 4.53465 1.17157 3.78451L3.78451 1.17157Z" fill="white"/>
<path fill-rule="evenodd" clip-rule="evenodd" d="M23.59 1.17157C24.3401 0.421427 25.3576 0 26.4184 0H32.3592C33.42 0 34.4375 0.421428 35.1876 1.17157L37.8005 3.78451C38.5507 4.53465 38.9721 5.55207 38.9721 6.61294V12.5537C38.9721 13.6146 38.5507 14.632 37.8005 15.3821L35.1876 17.9951C34.4375 18.7452 33.42 19.1666 32.3592 19.1666H26.4184C25.3576 19.1666 24.3401 18.7452 23.59 17.9951L20.9771 15.3821C20.2269 14.632 19.8055 13.6146 19.8055 12.5537V6.61294C19.8055 5.55207 20.2269 4.53465 20.9771 3.78451L23.59 1.17157ZM28.0062 3.83333C26.9454 3.83333 25.928 4.25475 25.1778 5.0049L24.8104 5.37232C24.0602 6.12247 23.6388 7.13988 23.6388 8.20075V10.9659C23.6388 12.0267 24.0602 13.0442 24.8104 13.7943L25.1778 14.1617C25.928 14.9119 26.9454 15.3333 28.0062 15.3333H30.7714C31.8322 15.3333 32.8496 14.9119 33.5998 14.1617L33.9672 13.7943C34.7174 13.0442 35.1388 12.0267 35.1388 10.9659V8.20075C35.1388 7.13989 34.7174 6.12247 33.9672 5.37232L33.5998 5.0049C32.8496 4.25475 31.8322 3.83333 30.7714 3.83333H28.0062Z" fill="white"/>
<path fill-rule="evenodd" clip-rule="evenodd" d="M67.0344 1.17157C67.7845 0.421427 68.8019 0 69.8628 0H75.8036C76.8644 0 77.8819 0.421428 78.632 1.17157L81.2449 3.78451C81.9951 4.53465 82.4165 5.55207 82.4165 6.61294V8.13887C82.4165 10.348 80.6256 12.1389 78.4165 12.1389H67.4253C67.2364 12.1389 67.0832 12.292 67.0832 12.481V12.481C67.0832 12.5718 67.1193 12.6588 67.1834 12.7229L68.6222 14.1617C69.3723 14.9119 70.3898 15.3333 71.4506 15.3333H75.5345C75.8712 15.3333 76.1996 15.2281 76.4737 15.0323V15.0323C77.1999 14.5136 78.2091 14.6818 78.7278 15.408L78.9026 15.6527C79.5179 16.5141 79.3184 17.7112 78.457 18.3264L77.9447 18.6924C77.5129 19.0008 76.9955 19.1666 76.4648 19.1666H69.8628C68.8019 19.1666 67.7845 18.7452 67.0344 17.9951L64.4215 15.3821C63.6713 14.632 63.2499 13.6146 63.2499 12.5537V6.61294C63.2499 5.55207 63.6713 4.53465 64.4215 3.78451L67.0344 1.17157ZM67.0832 7.05987C67.0832 7.74783 67.6409 8.30554 68.3289 8.30554H77.3375C78.0255 8.30554 78.5832 7.74783 78.5832 7.05987V7.05987C78.5832 6.7295 78.4519 6.41266 78.2183 6.17905L77.0442 5.0049C76.294 4.25475 75.2766 3.83333 74.2158 3.83333H71.4506C70.3898 3.83333 69.3723 4.25475 68.6222 5.0049L67.4481 6.17905C67.2144 6.41266 67.0832 6.7295 67.0832 7.05987V7.05987Z" fill="white"/>
<path fill-rule="evenodd" clip-rule="evenodd" d="M88.7566 1.17157C89.5068 0.421427 90.5242 0 91.585 0H98.235C98.7827 0 99.3131 0.192018 99.7339 0.542645L100.06 0.814443C100.873 1.49211 100.983 2.70069 100.305 3.51388L99.9249 3.9705C99.4574 4.53151 98.6236 4.60731 98.0626 4.1398V4.1398C97.825 3.94177 97.5254 3.83333 97.2161 3.83333H93.1729C92.112 3.83333 91.0946 4.25475 90.3444 5.0049L89.977 5.37232C89.2269 6.12247 88.8054 7.13988 88.8054 8.20075V17.25C88.8054 18.3085 87.9473 19.1666 86.8888 19.1666V19.1666C85.8302 19.1666 84.9721 18.3085 84.9721 17.25V6.61294C84.9721 5.55207 85.3935 4.53465 86.1437 3.78451L88.7566 1.17157Z" fill="white"/>
<path fill-rule="evenodd" clip-rule="evenodd" d="M47.2822 0C46.771 0 46.2807 0.203083 45.9192 0.564573L42.0923 4.39151C41.7308 4.753 41.5277 5.24328 41.5277 5.75451V21.0833C41.5277 22.1419 42.3858 23 43.4444 23C44.5029 23 45.361 22.1419 45.361 21.0833L45.361 18.0439L45.9192 18.6021C46.2807 18.9635 46.771 19.1666 47.2822 19.1666H54.9398C55.4511 19.1666 55.9413 18.9635 56.3028 18.6021L60.1298 14.7751C60.4913 14.4136 60.6943 13.9233 60.6943 13.4121V5.75451C60.6943 5.24328 60.4913 4.753 60.1298 4.39151L56.3028 0.564572C55.9413 0.203083 55.4511 0 54.9398 0H47.2822ZM45.361 11.8246C45.3611 12.3357 45.5642 12.8259 45.9256 13.1873L47.507 14.7687C47.8685 15.1302 48.3588 15.3333 48.87 15.3333H53.352C53.8632 15.3333 54.3535 15.1302 54.715 14.7687L56.2964 13.1873C56.6579 12.8258 56.861 12.3355 56.861 11.8243V7.34232C56.861 6.8311 56.6579 6.34081 56.2964 5.97932L54.715 4.3979C54.3535 4.03641 53.8632 3.83333 53.352 3.83333H48.87C48.3588 3.83333 47.8685 4.03641 47.507 4.3979L45.9256 5.97932C45.5641 6.34081 45.361 6.8311 45.361 7.34232V11.8246C45.361 11.8245 45.361 11.8246 45.361 11.8246Z" fill="white"/>
</svg>
