<svg width="281" height="568" viewBox="0 0 281 568" fill="none" xmlns="http://www.w3.org/2000/svg">
<path fill-rule="evenodd" clip-rule="evenodd" d="M2.96896 40C2.96896 17.9086 20.8776 0 42.969 0H237.969C260.06 0 277.969 17.9086 277.969 40V167.376C279.39 167.755 280.437 169.052 280.437 170.592V226.347C280.437 227.888 279.39 229.184 277.969 229.563V528C277.969 550.091 260.06 568 237.969 568H42.969C20.8776 568 2.96896 550.091 2.96896 528V248.796C1.29977 248.617 0 247.203 0 245.487V208.872C0 207.155 1.29977 205.742 2.96896 205.562V193.874C1.29977 193.694 0 192.281 0 190.564V153.949C0 152.232 1.29977 150.819 2.96896 150.64V133.126C1.29977 132.947 0 131.533 0 129.817V114.006C0 112.289 1.29977 110.876 2.96896 110.696V40Z" fill="#191E24"/>
<g clip-path="url(#clip0_654_2322)">
<path fill-rule="evenodd" clip-rule="evenodd" d="M13 10.0153H271V568.015H13V10.0153ZM157 28C157 22.4772 161.477 18 167 18C172.523 18 177 22.4772 177 28C177 33.5228 172.523 38 167 38C161.477 38 157 33.5228 157 28ZM114 18C108.477 18 104 22.4772 104 28C104 33.5228 108.477 38 114 38H139C144.523 38 149 33.5228 149 28C149 22.4772 144.523 18 139 18H114Z" fill="#FF1183"/>
<path d="M-50.8653 182.346C-47.7699 175.672 -42.4683 170.27 -35.8541 167.049L83.412 108.97C93.1214 104.242 104.561 104.733 113.83 110.276L271.076 204.315C278.147 208.544 283.313 215.339 285.498 223.283L318.761 344.237C319.687 347.605 320.055 351.102 319.851 354.589L304.074 623.614C303.029 641.423 287.618 654.935 269.825 653.64L-205.684 619.042C-227.994 617.419 -241.789 593.98 -232.377 573.687L-50.8653 182.346Z" fill="#3190FF"/>
<path fill-rule="evenodd" clip-rule="evenodd" d="M106.104 198.211C114.506 192.12 125.34 190.485 135.166 193.824L337.184 262.475C345.669 265.358 352.555 271.67 356.166 279.872L417.475 419.157C420.493 426.013 421.008 433.711 418.931 440.909L340.624 712.263C335.727 729.234 317.999 739.021 301.028 734.124L-70.7425 626.839C-87.3692 622.041 -97.1637 604.888 -92.8459 588.131L-17.874 297.154C-16.0164 289.945 -11.7019 283.609 -5.67409 279.24L106.104 198.211Z" fill="white"/>
<path fill-rule="evenodd" clip-rule="evenodd" d="M330.221 439.417C331.745 434.438 332.031 429.163 331.053 424.048L306.609 296.216C303.663 280.814 289.986 269.819 274.31 270.253L169.023 273.167C161.273 273.382 153.864 276.404 148.176 281.672L75.1377 349.316C71.1136 353.043 68.1156 357.742 66.4316 362.962L0.358018 567.779C-6.01302 587.528 7.81913 608.021 28.5178 609.499L247.406 625.13C262.273 626.191 275.903 616.843 280.266 602.591L330.221 439.417Z" fill="#3190FF"/>
<path fill-rule="evenodd" clip-rule="evenodd" d="M108.232 427.253C108.694 426.791 109.321 426.531 109.974 426.531H117.447C118.101 426.531 118.728 426.791 119.19 427.253L121.593 429.656C122.362 430.425 122.362 431.673 121.593 432.443V432.443C120.823 433.212 119.576 433.212 118.806 432.443L117.557 431.194C117.095 430.732 116.468 430.472 115.815 430.472H111.607C110.953 430.472 110.326 430.732 109.864 431.194L108.521 432.537C108.059 432.999 107.799 433.626 107.799 434.28V438.488C107.799 439.141 108.059 439.768 108.521 440.23L109.864 441.573C110.326 442.036 110.953 442.295 111.607 442.295H115.815C116.468 442.295 117.095 442.036 117.557 441.573L118.806 440.325C119.576 439.555 120.823 439.555 121.593 440.325V440.325C122.362 441.094 122.362 442.342 121.593 443.111L119.19 445.514C118.728 445.977 118.101 446.236 117.447 446.236H109.974C109.321 446.236 108.694 445.977 108.232 445.514L104.58 441.863C104.118 441.401 103.858 440.774 103.858 440.12V432.647C103.858 431.994 104.118 431.367 104.58 430.904L108.232 427.253Z" fill="white"/>
<path fill-rule="evenodd" clip-rule="evenodd" d="M128.594 427.253C129.056 426.791 129.683 426.531 130.336 426.531H137.809C138.463 426.531 139.09 426.791 139.552 427.253L143.204 430.904C143.666 431.367 143.926 431.993 143.926 432.647V440.12C143.926 440.774 143.666 441.4 143.204 441.863L139.552 445.514C139.09 445.977 138.463 446.236 137.809 446.236H130.336C129.683 446.236 129.056 445.977 128.594 445.514L124.942 441.863C124.48 441.4 124.22 440.774 124.22 440.12V432.647C124.22 431.993 124.48 431.367 124.942 430.904L128.594 427.253ZM131.969 430.472C131.315 430.472 130.688 430.732 130.226 431.194L128.883 432.537C128.421 432.999 128.161 433.626 128.161 434.28V438.488C128.161 439.141 128.421 439.768 128.883 440.23L130.226 441.573C130.688 442.035 131.315 442.295 131.969 442.295H136.177C136.831 442.295 137.457 442.035 137.92 441.573L139.263 440.23C139.725 439.768 139.984 439.141 139.984 438.488V434.28C139.984 433.626 139.725 432.999 139.263 432.537L137.92 431.194C137.457 430.732 136.831 430.472 136.177 430.472H131.969Z" fill="white"/>
<path fill-rule="evenodd" clip-rule="evenodd" d="M173.259 427.253C173.721 426.791 174.348 426.531 175.002 426.531H182.475C183.128 426.531 183.755 426.791 184.217 427.253L187.869 430.904C188.331 431.367 188.591 431.993 188.591 432.647V436.546C188.591 437.908 187.487 439.011 186.126 439.011H173.178C172.984 439.011 172.827 439.168 172.827 439.363V439.363C172.827 439.456 172.864 439.545 172.93 439.611L174.892 441.573C175.354 442.035 175.981 442.295 176.634 442.295H181.515C181.862 442.295 182.199 442.187 182.481 441.986V441.986C183.228 441.452 184.265 441.625 184.799 442.372L184.978 442.624C185.611 443.509 185.406 444.74 184.52 445.372L183.953 445.777C183.535 446.076 183.035 446.236 182.521 446.236H175.002C174.348 446.236 173.721 445.977 173.259 445.514L169.607 441.863C169.145 441.4 168.886 440.774 168.886 440.12V432.647C168.886 431.993 169.145 431.367 169.607 430.904L173.259 427.253ZM172.827 433.789C172.827 434.496 173.4 435.07 174.107 435.07H183.369C184.076 435.07 184.65 434.496 184.65 433.789V433.789C184.65 433.45 184.515 433.124 184.275 432.884L182.585 431.194C182.123 430.732 181.496 430.472 180.842 430.472H176.634C175.981 430.472 175.354 430.732 174.892 431.194L173.202 432.884C172.962 433.124 172.827 433.45 172.827 433.789V433.789Z" fill="white"/>
<path fill-rule="evenodd" clip-rule="evenodd" d="M195.592 427.253C196.054 426.791 196.681 426.531 197.334 426.531H204.854C205.417 426.531 205.962 426.728 206.395 427.089L206.73 427.368C207.566 428.065 207.679 429.307 206.982 430.144L206.591 430.613C206.111 431.19 205.253 431.268 204.677 430.787V430.787C204.432 430.583 204.124 430.472 203.806 430.472H198.967C198.313 430.472 197.686 430.732 197.224 431.194L195.881 432.537C195.419 432.999 195.159 433.626 195.159 434.28V444.266C195.159 445.354 194.277 446.236 193.189 446.236V446.236C192.1 446.236 191.218 445.354 191.218 444.266V432.647C191.218 431.993 191.478 431.367 191.94 430.904L195.592 427.253Z" fill="white"/>
<path fill-rule="evenodd" clip-rule="evenodd" d="M152.469 426.531C151.944 426.531 151.44 426.74 151.068 427.111L147.133 431.046C146.762 431.417 146.553 431.922 146.553 432.447V448.207C146.553 449.295 147.435 450.177 148.523 450.177C149.612 450.177 150.494 449.295 150.494 448.207L150.494 445.082L151.068 445.656C151.44 446.027 151.944 446.236 152.469 446.236H160.342C160.868 446.236 161.372 446.027 161.743 445.656L165.678 441.721C166.049 441.35 166.258 440.846 166.258 440.32V432.447C166.258 431.922 166.049 431.417 165.678 431.046L161.743 427.111C161.372 426.74 160.868 426.531 160.342 426.531H152.469ZM150.494 438.688C150.494 439.213 150.703 439.717 151.074 440.089L152.7 441.715C153.072 442.086 153.576 442.295 154.102 442.295H158.71C159.235 442.295 159.739 442.086 160.111 441.715L161.737 440.089C162.108 439.717 162.317 439.213 162.317 438.688V434.08C162.317 433.554 162.108 433.05 161.737 432.678L160.111 431.052C159.739 430.681 159.235 430.472 158.71 430.472H154.102C153.576 430.472 153.072 430.681 152.7 431.052L151.074 432.678C150.703 433.05 150.494 433.554 150.494 434.08V438.688C150.494 438.688 150.494 438.688 150.494 438.688Z" fill="white"/>
<path d="M110.512 463.677H111.289L109.447 469.924H108.282L106.773 464.62L105.219 469.924H104.054L102.279 463.677H103.033L104.642 469.591L106.396 463.677H107.161L108.859 469.591L110.512 463.677ZM113.767 470.035C113.272 470.035 112.861 469.924 112.536 469.702C112.217 469.473 111.981 469.18 111.825 468.825C111.677 468.463 111.603 468.089 111.603 467.705C111.603 467.283 111.685 466.898 111.848 466.551C112.018 466.195 112.262 465.914 112.58 465.707C112.905 465.5 113.294 465.396 113.745 465.396C114.322 465.396 114.803 465.585 115.188 465.962C115.572 466.332 115.779 466.832 115.809 467.46C115.816 467.49 115.82 467.534 115.82 467.594C115.82 467.645 115.82 467.693 115.82 467.738H112.291C112.291 468.263 112.417 468.677 112.669 468.981C112.928 469.277 113.29 469.424 113.756 469.424C114.104 469.424 114.4 469.336 114.644 469.158C114.895 468.981 115.051 468.74 115.11 468.437H115.809C115.735 468.896 115.517 469.277 115.154 469.58C114.792 469.883 114.33 470.035 113.767 470.035ZM112.314 467.349H115.088C115.088 467.194 115.043 467.009 114.955 466.795C114.873 466.58 114.733 466.395 114.533 466.24C114.341 466.077 114.074 465.996 113.734 465.996C113.423 465.996 113.168 466.062 112.968 466.195C112.769 466.329 112.617 466.499 112.513 466.706C112.41 466.913 112.343 467.128 112.314 467.349ZM120.941 470.024C120.527 470.024 120.186 469.924 119.92 469.724C119.654 469.517 119.454 469.24 119.321 468.892C119.195 468.544 119.132 468.148 119.132 467.705C119.132 467.024 119.28 466.465 119.576 466.029C119.879 465.585 120.334 465.363 120.941 465.363C121.252 465.363 121.511 465.419 121.718 465.53C121.932 465.633 122.102 465.763 122.228 465.918C122.361 466.073 122.457 466.221 122.517 466.362H122.528V465.408H123.26V469.924H122.65L122.539 469.047H122.517C122.45 469.195 122.354 469.347 122.228 469.502C122.102 469.65 121.932 469.776 121.718 469.879C121.511 469.976 121.252 470.024 120.941 470.024ZM121.218 469.391C121.677 469.391 122.006 469.24 122.206 468.936C122.413 468.633 122.517 468.226 122.517 467.716C122.517 467.168 122.409 466.75 122.195 466.462C121.988 466.173 121.662 466.029 121.218 466.029C120.73 466.029 120.379 466.192 120.164 466.517C119.957 466.835 119.853 467.231 119.853 467.705C119.853 468.2 119.961 468.607 120.175 468.925C120.39 469.236 120.737 469.391 121.218 469.391ZM125.887 470.035C125.458 470.035 125.103 469.946 124.822 469.768C124.548 469.584 124.341 469.369 124.201 469.125C124.067 468.881 124.001 468.663 124.001 468.47H124.689C124.689 468.478 124.693 468.533 124.7 468.637C124.715 468.74 124.755 468.859 124.822 468.992C124.889 469.125 125.003 469.243 125.166 469.347C125.329 469.443 125.565 469.491 125.876 469.491C126.209 469.491 126.494 469.432 126.731 469.314C126.975 469.195 127.093 469.01 127.086 468.759C127.086 468.544 127.012 468.381 126.864 468.27C126.723 468.152 126.538 468.063 126.309 468.004C126.08 467.938 125.839 467.875 125.588 467.815C125.336 467.756 125.096 467.682 124.866 467.594C124.644 467.497 124.463 467.364 124.323 467.194C124.182 467.024 124.112 466.787 124.112 466.484C124.112 466.114 124.278 465.822 124.611 465.607C124.944 465.385 125.369 465.274 125.887 465.274C126.176 465.274 126.468 465.322 126.764 465.419C127.06 465.507 127.304 465.666 127.496 465.896C127.689 466.118 127.777 466.432 127.763 466.839H127.097C127.112 466.558 127.049 466.347 126.908 466.207C126.768 466.066 126.597 465.973 126.398 465.929C126.205 465.877 126.028 465.851 125.865 465.851C125.547 465.851 125.284 465.911 125.077 466.029C124.877 466.147 124.778 466.314 124.778 466.528C124.778 466.735 124.848 466.894 124.988 467.005C125.136 467.109 125.321 467.194 125.543 467.261C125.773 467.32 126.013 467.379 126.265 467.438C126.523 467.49 126.768 467.564 126.997 467.66C127.226 467.756 127.411 467.893 127.552 468.071C127.7 468.248 127.774 468.492 127.774 468.803C127.774 469.232 127.592 469.547 127.23 469.746C126.867 469.939 126.42 470.035 125.887 470.035ZM130.298 470.035C129.869 470.035 129.513 469.946 129.232 469.768C128.959 469.584 128.752 469.369 128.611 469.125C128.478 468.881 128.411 468.663 128.411 468.47H129.099C129.099 468.478 129.103 468.533 129.11 468.637C129.125 468.74 129.166 468.859 129.232 468.992C129.299 469.125 129.414 469.243 129.576 469.347C129.739 469.443 129.976 469.491 130.287 469.491C130.619 469.491 130.904 469.432 131.141 469.314C131.385 469.195 131.503 469.01 131.496 468.759C131.496 468.544 131.422 468.381 131.274 468.27C131.134 468.152 130.949 468.063 130.719 468.004C130.49 467.938 130.25 467.875 129.998 467.815C129.747 467.756 129.506 467.682 129.277 467.594C129.055 467.497 128.874 467.364 128.733 467.194C128.592 467.024 128.522 466.787 128.522 466.484C128.522 466.114 128.689 465.822 129.022 465.607C129.354 465.385 129.78 465.274 130.298 465.274C130.586 465.274 130.878 465.322 131.174 465.419C131.47 465.507 131.714 465.666 131.907 465.896C132.099 466.118 132.188 466.432 132.173 466.839H131.507C131.522 466.558 131.459 466.347 131.319 466.207C131.178 466.066 131.008 465.973 130.808 465.929C130.616 465.877 130.438 465.851 130.275 465.851C129.957 465.851 129.695 465.911 129.488 466.029C129.288 466.147 129.188 466.314 129.188 466.528C129.188 466.735 129.258 466.894 129.399 467.005C129.547 467.109 129.732 467.194 129.954 467.261C130.183 467.32 130.423 467.379 130.675 467.438C130.934 467.49 131.178 467.564 131.407 467.66C131.637 467.756 131.822 467.893 131.962 468.071C132.11 468.248 132.184 468.492 132.184 468.803C132.184 469.232 132.003 469.547 131.64 469.746C131.278 469.939 130.83 470.035 130.298 470.035ZM133.531 464.919C133.368 464.919 133.257 464.879 133.198 464.797C133.146 464.708 133.12 464.598 133.12 464.464C133.12 464.353 133.146 464.257 133.198 464.176C133.257 464.087 133.368 464.043 133.531 464.043C133.693 464.043 133.801 464.087 133.852 464.176C133.912 464.257 133.941 464.353 133.941 464.464C133.941 464.598 133.912 464.708 133.852 464.797C133.801 464.879 133.693 464.919 133.531 464.919ZM133.175 469.924V465.408H133.886V469.924H133.175ZM136.724 470.035C136.295 470.035 135.939 469.946 135.658 469.768C135.385 469.584 135.178 469.369 135.037 469.125C134.904 468.881 134.837 468.663 134.837 468.47H135.525C135.525 468.478 135.529 468.533 135.536 468.637C135.551 468.74 135.592 468.859 135.658 468.992C135.725 469.125 135.84 469.243 136.002 469.347C136.165 469.443 136.402 469.491 136.713 469.491C137.045 469.491 137.33 469.432 137.567 469.314C137.811 469.195 137.929 469.01 137.922 468.759C137.922 468.544 137.848 468.381 137.7 468.27C137.56 468.152 137.375 468.063 137.145 468.004C136.916 467.938 136.676 467.875 136.424 467.815C136.172 467.756 135.932 467.682 135.703 467.594C135.481 467.497 135.3 467.364 135.159 467.194C135.018 467.024 134.948 466.787 134.948 466.484C134.948 466.114 135.115 465.822 135.448 465.607C135.78 465.385 136.206 465.274 136.724 465.274C137.012 465.274 137.304 465.322 137.6 465.419C137.896 465.507 138.14 465.666 138.333 465.896C138.525 466.118 138.614 466.432 138.599 466.839H137.933C137.948 466.558 137.885 466.347 137.744 466.207C137.604 466.066 137.434 465.973 137.234 465.929C137.042 465.877 136.864 465.851 136.701 465.851C136.383 465.851 136.121 465.911 135.914 466.029C135.714 466.147 135.614 466.314 135.614 466.528C135.614 466.735 135.684 466.894 135.825 467.005C135.973 467.109 136.158 467.194 136.38 467.261C136.609 467.32 136.849 467.379 137.101 467.438C137.36 467.49 137.604 467.564 137.833 467.66C138.063 467.756 138.248 467.893 138.388 468.071C138.536 468.248 138.61 468.492 138.61 468.803C138.61 469.232 138.429 469.547 138.066 469.746C137.704 469.939 137.256 470.035 136.724 470.035ZM140.522 469.924C140.249 469.924 140.056 469.85 139.945 469.702C139.842 469.554 139.79 469.351 139.79 469.092V465.94H139.08V465.408C139.317 465.408 139.49 465.389 139.601 465.352C139.72 465.308 139.794 465.204 139.823 465.041C139.853 464.879 139.868 464.612 139.868 464.242H140.478V465.408H141.521V465.94H140.478V469.347H141.532V469.924H140.522ZM147.609 470.035C147.321 470.035 147.073 469.987 146.866 469.891C146.666 469.787 146.503 469.669 146.378 469.535C146.252 469.402 146.156 469.277 146.089 469.158C146.03 469.04 145.993 468.962 145.978 468.925H145.956V471.788H145.224V465.408H145.834L145.956 466.539H145.978C145.993 466.502 146.03 466.425 146.089 466.306C146.148 466.188 146.237 466.059 146.356 465.918C146.481 465.777 146.644 465.659 146.844 465.563C147.051 465.459 147.306 465.408 147.609 465.408C148.046 465.408 148.408 465.507 148.697 465.707C148.993 465.907 149.215 466.184 149.363 466.539C149.518 466.887 149.596 467.287 149.596 467.738C149.596 468.411 149.426 468.962 149.085 469.391C148.745 469.82 148.253 470.035 147.609 470.035ZM147.465 469.402C147.813 469.402 148.09 469.321 148.297 469.158C148.512 468.995 148.664 468.788 148.752 468.537C148.849 468.278 148.897 468.008 148.897 467.727C148.897 467.438 148.845 467.168 148.741 466.917C148.638 466.665 148.475 466.462 148.253 466.306C148.038 466.144 147.754 466.062 147.399 466.062C146.97 466.062 146.626 466.214 146.367 466.517C146.108 466.813 145.978 467.216 145.978 467.727C145.978 468.245 146.115 468.655 146.389 468.958C146.663 469.254 147.021 469.402 147.465 469.402ZM152.41 470.035C151.914 470.035 151.504 469.924 151.178 469.702C150.86 469.473 150.623 469.18 150.468 468.825C150.32 468.463 150.246 468.089 150.246 467.705C150.246 467.283 150.327 466.898 150.49 466.551C150.66 466.195 150.904 465.914 151.223 465.707C151.548 465.5 151.936 465.396 152.388 465.396C152.965 465.396 153.446 465.585 153.83 465.962C154.215 466.332 154.422 466.832 154.452 467.46C154.459 467.49 154.463 467.534 154.463 467.594C154.463 467.645 154.463 467.693 154.463 467.738H150.934C150.934 468.263 151.06 468.677 151.311 468.981C151.57 469.277 151.933 469.424 152.399 469.424C152.746 469.424 153.042 469.336 153.286 469.158C153.538 468.981 153.693 468.74 153.753 468.437H154.452C154.378 468.896 154.159 469.277 153.797 469.58C153.434 469.883 152.972 470.035 152.41 470.035ZM150.956 467.349H153.73C153.73 467.194 153.686 467.009 153.597 466.795C153.516 466.58 153.375 466.395 153.176 466.24C152.983 466.077 152.717 465.996 152.377 465.996C152.066 465.996 151.811 466.062 151.611 466.195C151.411 466.329 151.26 466.499 151.156 466.706C151.052 466.913 150.986 467.128 150.956 467.349ZM157.405 470.035C156.68 470.035 156.136 469.82 155.774 469.391C155.419 468.955 155.241 468.4 155.241 467.727C155.234 467.046 155.412 466.491 155.774 466.062C156.144 465.626 156.688 465.404 157.405 465.396C158.115 465.396 158.652 465.611 159.014 466.04C159.384 466.462 159.569 467.024 159.569 467.727C159.569 468.163 159.491 468.555 159.336 468.903C159.181 469.251 158.944 469.528 158.626 469.735C158.308 469.935 157.901 470.035 157.405 470.035ZM157.405 469.413C157.79 469.413 158.086 469.328 158.293 469.158C158.507 468.988 158.655 468.773 158.737 468.515C158.826 468.248 158.87 467.978 158.87 467.705C158.87 467.431 158.826 467.161 158.737 466.894C158.655 466.628 158.507 466.41 158.293 466.24C158.086 466.07 157.79 465.985 157.405 465.985C157.021 465.985 156.721 466.07 156.506 466.24C156.299 466.41 156.151 466.628 156.063 466.894C155.981 467.161 155.94 467.431 155.94 467.705C155.94 467.978 155.981 468.248 156.063 468.515C156.151 468.773 156.299 468.988 156.506 469.158C156.721 469.328 157.021 469.413 157.405 469.413ZM162.954 470.035C162.665 470.035 162.417 469.987 162.21 469.891C162.011 469.787 161.848 469.669 161.722 469.535C161.596 469.402 161.5 469.277 161.434 469.158C161.374 469.04 161.337 468.962 161.323 468.925H161.3V471.788H160.568V465.408H161.178L161.3 466.539H161.323C161.337 466.502 161.374 466.425 161.434 466.306C161.493 466.188 161.581 466.059 161.7 465.918C161.826 465.777 161.988 465.659 162.188 465.563C162.395 465.459 162.65 465.408 162.954 465.408C163.39 465.408 163.753 465.507 164.041 465.707C164.337 465.907 164.559 466.184 164.707 466.539C164.862 466.887 164.94 467.287 164.94 467.738C164.94 468.411 164.77 468.962 164.43 469.391C164.089 469.82 163.597 470.035 162.954 470.035ZM162.81 469.402C163.157 469.402 163.435 469.321 163.642 469.158C163.856 468.995 164.008 468.788 164.097 468.537C164.193 468.278 164.241 468.008 164.241 467.727C164.241 467.438 164.189 467.168 164.086 466.917C163.982 466.665 163.819 466.462 163.597 466.306C163.383 466.144 163.098 466.062 162.743 466.062C162.314 466.062 161.97 466.214 161.711 466.517C161.452 466.813 161.323 467.216 161.323 467.727C161.323 468.245 161.459 468.655 161.733 468.958C162.007 469.254 162.366 469.402 162.81 469.402ZM165.857 469.924V463.677H166.556V469.924H165.857ZM169.607 470.035C169.112 470.035 168.701 469.924 168.376 469.702C168.057 469.473 167.821 469.18 167.665 468.825C167.517 468.463 167.443 468.089 167.443 467.705C167.443 467.283 167.525 466.898 167.688 466.551C167.858 466.195 168.102 465.914 168.42 465.707C168.745 465.5 169.134 465.396 169.585 465.396C170.162 465.396 170.643 465.585 171.028 465.962C171.412 466.332 171.619 466.832 171.649 467.46C171.656 467.49 171.66 467.534 171.66 467.594C171.66 467.645 171.66 467.693 171.66 467.738H168.131C168.131 468.263 168.257 468.677 168.509 468.981C168.768 469.277 169.13 469.424 169.596 469.424C169.944 469.424 170.24 469.336 170.484 469.158C170.735 468.981 170.891 468.74 170.95 468.437H171.649C171.575 468.896 171.357 469.277 170.994 469.58C170.632 469.883 170.169 470.035 169.607 470.035ZM168.154 467.349H170.928C170.928 467.194 170.883 467.009 170.795 466.795C170.713 466.58 170.573 466.395 170.373 466.24C170.181 466.077 169.914 465.996 169.574 465.996C169.263 465.996 169.008 466.062 168.808 466.195C168.609 466.329 168.457 466.499 168.353 466.706C168.25 466.913 168.183 467.128 168.154 467.349ZM175.76 464.919C175.597 464.919 175.486 464.879 175.427 464.797C175.375 464.708 175.349 464.598 175.349 464.464C175.349 464.353 175.375 464.257 175.427 464.176C175.486 464.087 175.597 464.043 175.76 464.043C175.923 464.043 176.03 464.087 176.082 464.176C176.141 464.257 176.171 464.353 176.171 464.464C176.171 464.598 176.141 464.708 176.082 464.797C176.03 464.879 175.923 464.919 175.76 464.919ZM175.405 469.924V465.408H176.115V469.924H175.405ZM177.155 469.924V465.408H177.766L177.888 466.528H177.91C177.917 466.491 177.951 466.414 178.01 466.295C178.069 466.177 178.158 466.051 178.276 465.918C178.402 465.777 178.565 465.659 178.764 465.563C178.964 465.459 179.219 465.408 179.53 465.408C179.922 465.408 180.229 465.478 180.451 465.618C180.68 465.759 180.851 465.948 180.961 466.184C181.072 466.414 181.143 466.661 181.172 466.928C181.202 467.194 181.217 467.449 181.217 467.693V469.924H180.529V467.693C180.529 467.205 180.444 466.809 180.274 466.506C180.111 466.203 179.785 466.051 179.297 466.051C178.964 466.051 178.69 466.133 178.476 466.295C178.269 466.451 178.117 466.661 178.021 466.928C177.932 467.187 177.888 467.472 177.888 467.782V469.924H177.155ZM186.816 470.035C186.394 470.035 186.017 469.946 185.684 469.768C185.351 469.591 185.089 469.332 184.896 468.992C184.704 468.651 184.608 468.241 184.608 467.76C184.623 467.287 184.722 466.872 184.907 466.517C185.1 466.162 185.362 465.888 185.695 465.696C186.028 465.496 186.409 465.396 186.838 465.396C187.238 465.396 187.585 465.47 187.881 465.618C188.177 465.766 188.414 465.966 188.591 466.218C188.769 466.469 188.88 466.747 188.924 467.05H188.27C188.196 466.724 188.033 466.473 187.781 466.295C187.537 466.118 187.23 466.029 186.86 466.029C186.387 466.029 186.01 466.188 185.728 466.506C185.455 466.817 185.314 467.224 185.307 467.727C185.307 468.237 185.44 468.644 185.706 468.947C185.98 469.243 186.361 469.391 186.849 469.391C187.204 469.391 187.511 469.302 187.77 469.125C188.029 468.947 188.196 468.692 188.27 468.359H188.924C188.88 468.67 188.765 468.951 188.58 469.203C188.403 469.454 188.162 469.658 187.859 469.813C187.563 469.961 187.215 470.035 186.816 470.035ZM189.803 469.924V463.677H190.524V466.528H190.546C190.561 466.491 190.594 466.414 190.646 466.295C190.705 466.177 190.794 466.051 190.912 465.918C191.031 465.777 191.19 465.659 191.389 465.563C191.589 465.459 191.841 465.408 192.144 465.408C192.529 465.408 192.836 465.482 193.065 465.629C193.294 465.77 193.464 465.959 193.575 466.195C193.694 466.425 193.771 466.673 193.808 466.939C193.845 467.205 193.864 467.457 193.864 467.693V469.924H193.165V467.693C193.165 467.205 193.08 466.809 192.91 466.506C192.747 466.203 192.425 466.051 191.944 466.051C191.604 466.051 191.33 466.133 191.123 466.295C190.916 466.451 190.764 466.661 190.668 466.928C190.572 467.187 190.524 467.472 190.524 467.782V469.924H189.803ZM196.373 470.024C195.959 470.024 195.618 469.924 195.352 469.724C195.086 469.517 194.886 469.24 194.753 468.892C194.627 468.544 194.564 468.148 194.564 467.705C194.564 467.024 194.712 466.465 195.008 466.029C195.311 465.585 195.766 465.363 196.373 465.363C196.684 465.363 196.943 465.419 197.15 465.53C197.364 465.633 197.534 465.763 197.66 465.918C197.793 466.073 197.89 466.221 197.949 466.362H197.96V465.408H198.692V469.924H198.082L197.971 469.047H197.949C197.882 469.195 197.786 469.347 197.66 469.502C197.534 469.65 197.364 469.776 197.15 469.879C196.943 469.976 196.684 470.024 196.373 470.024ZM196.65 469.391C197.109 469.391 197.438 469.24 197.638 468.936C197.845 468.633 197.949 468.226 197.949 467.716C197.949 467.168 197.841 466.75 197.627 466.462C197.42 466.173 197.094 466.029 196.65 466.029C196.162 466.029 195.811 466.192 195.596 466.517C195.389 466.835 195.286 467.231 195.286 467.705C195.286 468.2 195.393 468.607 195.607 468.925C195.822 469.236 196.17 469.391 196.65 469.391ZM199.677 469.924V463.677H200.376V469.924H199.677ZM201.53 469.924V463.677H202.229V469.924H201.53ZM205.281 470.035C204.785 470.035 204.374 469.924 204.049 469.702C203.731 469.473 203.494 469.18 203.339 468.825C203.191 468.463 203.117 468.089 203.117 467.705C203.117 467.283 203.198 466.898 203.361 466.551C203.531 466.195 203.775 465.914 204.093 465.707C204.419 465.5 204.807 465.396 205.258 465.396C205.835 465.396 206.316 465.585 206.701 465.962C207.086 466.332 207.293 466.832 207.322 467.46C207.33 467.49 207.333 467.534 207.333 467.594C207.333 467.645 207.333 467.693 207.333 467.738H203.805C203.805 468.263 203.931 468.677 204.182 468.981C204.441 469.277 204.803 469.424 205.27 469.424C205.617 469.424 205.913 469.336 206.157 469.158C206.409 468.981 206.564 468.74 206.623 468.437H207.322C207.248 468.896 207.03 469.277 206.668 469.58C206.305 469.883 205.843 470.035 205.281 470.035ZM203.827 467.349H206.601C206.601 467.194 206.557 467.009 206.468 466.795C206.387 466.58 206.246 466.395 206.046 466.24C205.854 466.077 205.588 465.996 205.247 465.996C204.937 465.996 204.681 466.062 204.482 466.195C204.282 466.329 204.13 466.499 204.027 466.706C203.923 466.913 203.857 467.128 203.827 467.349ZM208.234 469.924V465.408H208.844L208.967 466.528H208.989C208.996 466.491 209.029 466.414 209.089 466.295C209.148 466.177 209.237 466.051 209.355 465.918C209.481 465.777 209.643 465.659 209.843 465.563C210.043 465.459 210.298 465.408 210.609 465.408C211.001 465.408 211.308 465.478 211.53 465.618C211.759 465.759 211.929 465.948 212.04 466.184C212.151 466.414 212.222 466.661 212.251 466.928C212.281 467.194 212.295 467.449 212.295 467.693V469.924H211.608V467.693C211.608 467.205 211.522 466.809 211.352 466.506C211.19 466.203 210.864 466.051 210.376 466.051C210.043 466.051 209.769 466.133 209.555 466.295C209.348 466.451 209.196 466.661 209.1 466.928C209.011 467.187 208.967 467.472 208.967 467.782V469.924H208.234ZM214.296 471.788V471.111H216.549V468.925H216.526C216.512 468.962 216.471 469.04 216.404 469.158C216.345 469.277 216.249 469.402 216.116 469.535C215.99 469.669 215.824 469.787 215.617 469.891C215.417 469.987 215.173 470.035 214.884 470.035C214.448 470.035 214.082 469.935 213.786 469.735C213.497 469.528 213.279 469.251 213.131 468.903C212.983 468.555 212.909 468.163 212.909 467.727C212.909 467.046 213.075 466.491 213.408 466.062C213.749 465.626 214.244 465.408 214.895 465.408C215.199 465.408 215.45 465.459 215.65 465.563C215.857 465.659 216.02 465.777 216.138 465.918C216.264 466.059 216.356 466.188 216.415 466.306C216.475 466.425 216.512 466.502 216.526 466.539H216.549V465.408H217.281V470.701C217.281 471.056 217.214 471.326 217.081 471.511C216.948 471.696 216.708 471.788 216.36 471.788H214.296ZM215.04 469.402C215.483 469.402 215.842 469.254 216.116 468.958C216.39 468.655 216.526 468.245 216.526 467.727C216.526 467.216 216.397 466.813 216.138 466.517C215.879 466.214 215.535 466.062 215.106 466.062C214.751 466.062 214.462 466.144 214.241 466.306C214.026 466.462 213.867 466.665 213.763 466.917C213.66 467.168 213.608 467.438 213.608 467.727C213.608 468.008 213.652 468.278 213.741 468.537C213.837 468.788 213.989 468.995 214.196 469.158C214.411 469.321 214.692 469.402 215.04 469.402ZM218.791 464.919C218.629 464.919 218.518 464.879 218.458 464.797C218.407 464.708 218.381 464.598 218.381 464.464C218.381 464.353 218.407 464.257 218.458 464.176C218.518 464.087 218.629 464.043 218.791 464.043C218.954 464.043 219.061 464.087 219.113 464.176C219.172 464.257 219.202 464.353 219.202 464.464C219.202 464.598 219.172 464.708 219.113 464.797C219.061 464.879 218.954 464.919 218.791 464.919ZM218.436 469.924V465.408H219.146V469.924H218.436ZM220.187 469.924V465.408H220.797L220.919 466.528H220.941C220.949 466.491 220.982 466.414 221.041 466.295C221.1 466.177 221.189 466.051 221.307 465.918C221.433 465.777 221.596 465.659 221.796 465.563C221.995 465.459 222.251 465.408 222.561 465.408C222.953 465.408 223.26 465.478 223.482 465.618C223.712 465.759 223.882 465.948 223.993 466.184C224.104 466.414 224.174 466.661 224.204 466.928C224.233 467.194 224.248 467.449 224.248 467.693V469.924H223.56V467.693C223.56 467.205 223.475 466.809 223.305 466.506C223.142 466.203 222.817 466.051 222.328 466.051C221.995 466.051 221.722 466.133 221.507 466.295C221.3 466.451 221.148 466.661 221.052 466.928C220.963 467.187 220.919 467.472 220.919 467.782V469.924H220.187ZM226.249 471.788V471.111H228.501V468.925H228.479C228.464 468.962 228.424 469.04 228.357 469.158C228.298 469.277 228.202 469.402 228.068 469.535C227.943 469.669 227.776 469.787 227.569 469.891C227.369 469.987 227.125 470.035 226.837 470.035C226.4 470.035 226.034 469.935 225.738 469.735C225.45 469.528 225.231 469.251 225.083 468.903C224.936 468.555 224.862 468.163 224.862 467.727C224.862 467.046 225.028 466.491 225.361 466.062C225.701 465.626 226.197 465.408 226.848 465.408C227.151 465.408 227.403 465.459 227.602 465.563C227.81 465.659 227.972 465.777 228.091 465.918C228.216 466.059 228.309 466.188 228.368 466.306C228.427 466.425 228.464 466.502 228.479 466.539H228.501V465.408H229.234V470.701C229.234 471.056 229.167 471.326 229.034 471.511C228.901 471.696 228.66 471.788 228.313 471.788H226.249ZM226.992 469.402C227.436 469.402 227.795 469.254 228.068 468.958C228.342 468.655 228.479 468.245 228.479 467.727C228.479 467.216 228.35 466.813 228.091 466.517C227.832 466.214 227.488 466.062 227.059 466.062C226.704 466.062 226.415 466.144 226.193 466.306C225.979 466.462 225.82 466.665 225.716 466.917C225.612 467.168 225.561 467.438 225.561 467.727C225.561 468.008 225.605 468.278 225.694 468.537C225.79 468.788 225.942 468.995 226.149 469.158C226.363 469.321 226.644 469.402 226.992 469.402ZM103.044 484.957V480.94H102.345V480.408H103.044V479.409C103.044 479.15 103.096 478.947 103.2 478.799C103.311 478.651 103.503 478.577 103.777 478.577H105.119V479.165H103.766V480.408H105.042V480.94H103.766V484.957H103.044ZM106.44 479.919C106.277 479.919 106.166 479.879 106.107 479.797C106.055 479.708 106.029 479.598 106.029 479.464C106.029 479.353 106.055 479.257 106.107 479.176C106.166 479.087 106.277 479.043 106.44 479.043C106.602 479.043 106.71 479.087 106.761 479.176C106.821 479.257 106.85 479.353 106.85 479.464C106.85 479.598 106.821 479.708 106.761 479.797C106.71 479.879 106.602 479.919 106.44 479.919ZM106.084 484.924V480.408H106.795V484.924H106.084ZM107.835 484.924V480.408H108.445L108.567 481.528H108.59C108.597 481.491 108.63 481.414 108.689 481.295C108.749 481.177 108.837 481.051 108.956 480.918C109.082 480.777 109.244 480.659 109.444 480.563C109.644 480.459 109.899 480.408 110.21 480.408C110.602 480.408 110.909 480.478 111.131 480.618C111.36 480.759 111.53 480.948 111.641 481.184C111.752 481.414 111.822 481.661 111.852 481.928C111.882 482.194 111.896 482.449 111.896 482.693V484.924H111.208V482.693C111.208 482.205 111.123 481.809 110.953 481.506C110.79 481.203 110.465 481.051 109.977 481.051C109.644 481.051 109.37 481.133 109.155 481.295C108.948 481.451 108.797 481.661 108.701 481.928C108.612 482.187 108.567 482.472 108.567 482.782V484.924H107.835ZM114.374 485.024C113.96 485.024 113.619 484.924 113.353 484.724C113.087 484.517 112.887 484.24 112.754 483.892C112.628 483.544 112.565 483.148 112.565 482.705C112.565 482.024 112.713 481.465 113.009 481.029C113.312 480.585 113.767 480.363 114.374 480.363C114.685 480.363 114.944 480.419 115.151 480.53C115.365 480.633 115.535 480.763 115.661 480.918C115.794 481.073 115.891 481.221 115.95 481.362H115.961V480.408H116.693V484.924H116.083L115.972 484.047H115.95C115.883 484.195 115.787 484.347 115.661 484.502C115.535 484.65 115.365 484.776 115.151 484.879C114.944 484.976 114.685 485.024 114.374 485.024ZM114.651 484.391C115.11 484.391 115.439 484.24 115.639 483.936C115.846 483.633 115.95 483.226 115.95 482.716C115.95 482.168 115.842 481.75 115.628 481.462C115.421 481.173 115.095 481.029 114.651 481.029C114.163 481.029 113.812 481.192 113.597 481.517C113.39 481.835 113.287 482.231 113.287 482.705C113.287 483.2 113.394 483.607 113.608 483.925C113.823 484.236 114.171 484.391 114.651 484.391ZM117.523 484.924V480.408H118.133L118.255 481.528H118.277C118.285 481.491 118.318 481.414 118.377 481.295C118.436 481.177 118.525 481.051 118.643 480.918C118.769 480.777 118.932 480.659 119.132 480.563C119.331 480.459 119.587 480.408 119.897 480.408C120.289 480.408 120.596 480.478 120.818 480.618C121.048 480.759 121.218 480.948 121.329 481.184C121.44 481.414 121.51 481.661 121.54 481.928C121.569 482.194 121.584 482.449 121.584 482.693V484.924H120.896V482.693C120.896 482.205 120.811 481.809 120.641 481.506C120.478 481.203 120.153 481.051 119.664 481.051C119.331 481.051 119.058 481.133 118.843 481.295C118.636 481.451 118.484 481.661 118.388 481.928C118.3 482.187 118.255 482.472 118.255 482.782V484.924H117.523ZM124.55 485.035C124.128 485.035 123.751 484.946 123.418 484.768C123.085 484.591 122.823 484.332 122.63 483.992C122.438 483.651 122.342 483.241 122.342 482.76C122.357 482.287 122.456 481.872 122.641 481.517C122.834 481.162 123.096 480.888 123.429 480.696C123.762 480.496 124.143 480.396 124.572 480.396C124.972 480.396 125.319 480.47 125.615 480.618C125.911 480.766 126.148 480.966 126.325 481.218C126.503 481.469 126.614 481.747 126.658 482.05H126.004C125.93 481.724 125.767 481.473 125.515 481.295C125.271 481.118 124.964 481.029 124.594 481.029C124.121 481.029 123.744 481.188 123.463 481.506C123.189 481.817 123.048 482.224 123.041 482.727C123.041 483.237 123.174 483.644 123.44 483.947C123.714 484.243 124.095 484.391 124.583 484.391C124.938 484.391 125.245 484.302 125.504 484.125C125.763 483.947 125.93 483.692 126.004 483.359H126.658C126.614 483.67 126.499 483.951 126.314 484.203C126.137 484.454 125.896 484.658 125.593 484.813C125.297 484.961 124.949 485.035 124.55 485.035ZM128.058 479.919C127.895 479.919 127.784 479.879 127.725 479.797C127.673 479.708 127.648 479.598 127.648 479.464C127.648 479.353 127.673 479.257 127.725 479.176C127.784 479.087 127.895 479.043 128.058 479.043C128.221 479.043 128.328 479.087 128.38 479.176C128.439 479.257 128.469 479.353 128.469 479.464C128.469 479.598 128.439 479.708 128.38 479.797C128.328 479.879 128.221 479.919 128.058 479.919ZM127.703 484.924V480.408H128.413V484.924H127.703ZM131.04 485.024C130.626 485.024 130.286 484.924 130.02 484.724C129.753 484.517 129.553 484.24 129.42 483.892C129.295 483.544 129.232 483.148 129.232 482.705C129.232 482.024 129.38 481.465 129.676 481.029C129.979 480.585 130.434 480.363 131.04 480.363C131.351 480.363 131.61 480.419 131.817 480.53C132.032 480.633 132.202 480.763 132.328 480.918C132.461 481.073 132.557 481.221 132.616 481.362H132.627V480.408H133.36V484.924H132.749L132.638 484.047H132.616C132.55 484.195 132.453 484.347 132.328 484.502C132.202 484.65 132.032 484.776 131.817 484.879C131.61 484.976 131.351 485.024 131.04 485.024ZM131.318 484.391C131.776 484.391 132.106 484.24 132.305 483.936C132.513 483.633 132.616 483.226 132.616 482.716C132.616 482.168 132.509 481.75 132.294 481.462C132.087 481.173 131.762 481.029 131.318 481.029C130.83 481.029 130.478 481.192 130.264 481.517C130.057 481.835 129.953 482.231 129.953 482.705C129.953 483.2 130.06 483.607 130.275 483.925C130.489 484.236 130.837 484.391 131.318 484.391ZM134.344 484.924V478.677H135.044V484.924H134.344ZM140.473 485.035C140.044 485.035 139.689 484.946 139.408 484.768C139.134 484.584 138.927 484.369 138.786 484.125C138.653 483.881 138.587 483.663 138.587 483.47H139.275C139.275 483.478 139.278 483.533 139.286 483.637C139.3 483.74 139.341 483.859 139.408 483.992C139.474 484.125 139.589 484.243 139.752 484.347C139.914 484.443 140.151 484.491 140.462 484.491C140.795 484.491 141.08 484.432 141.316 484.314C141.56 484.195 141.679 484.01 141.671 483.759C141.671 483.544 141.597 483.381 141.45 483.27C141.309 483.152 141.124 483.063 140.895 483.004C140.665 482.938 140.425 482.875 140.173 482.815C139.922 482.756 139.681 482.682 139.452 482.594C139.23 482.497 139.049 482.364 138.908 482.194C138.768 482.024 138.698 481.787 138.698 481.484C138.698 481.114 138.864 480.822 139.197 480.607C139.53 480.385 139.955 480.274 140.473 480.274C140.762 480.274 141.054 480.322 141.35 480.419C141.646 480.507 141.89 480.666 142.082 480.896C142.274 481.118 142.363 481.432 142.348 481.839H141.683C141.697 481.558 141.634 481.347 141.494 481.207C141.353 481.066 141.183 480.973 140.983 480.929C140.791 480.877 140.614 480.851 140.451 480.851C140.133 480.851 139.87 480.911 139.663 481.029C139.463 481.147 139.363 481.314 139.363 481.528C139.363 481.735 139.434 481.894 139.574 482.005C139.722 482.109 139.907 482.194 140.129 482.261C140.358 482.32 140.599 482.379 140.85 482.438C141.109 482.49 141.353 482.564 141.583 482.66C141.812 482.756 141.997 482.893 142.137 483.071C142.285 483.248 142.359 483.492 142.359 483.803C142.359 484.232 142.178 484.547 141.816 484.746C141.453 484.939 141.006 485.035 140.473 485.035ZM143.706 479.919C143.543 479.919 143.432 479.879 143.373 479.797C143.321 479.708 143.295 479.598 143.295 479.464C143.295 479.353 143.321 479.257 143.373 479.176C143.432 479.087 143.543 479.043 143.706 479.043C143.869 479.043 143.976 479.087 144.028 479.176C144.087 479.257 144.116 479.353 144.116 479.464C144.116 479.598 144.087 479.708 144.028 479.797C143.976 479.879 143.869 479.919 143.706 479.919ZM143.351 484.924V480.408H144.061V484.924H143.351ZM146.342 484.924C146.068 484.924 145.876 484.85 145.765 484.702C145.661 484.554 145.609 484.351 145.609 484.092V480.94H144.899V480.408C145.136 480.408 145.31 480.389 145.421 480.352C145.539 480.308 145.613 480.204 145.642 480.041C145.672 479.879 145.687 479.612 145.687 479.242H146.297V480.408H147.34V480.94H146.297V484.347H147.351V484.924H146.342ZM149.952 485.035C149.582 485.035 149.283 484.968 149.053 484.835C148.831 484.702 148.661 484.524 148.543 484.302C148.424 484.073 148.343 483.825 148.299 483.559C148.262 483.285 148.243 483.012 148.243 482.738V480.408H148.953V482.749C148.953 483.045 148.983 483.319 149.042 483.57C149.101 483.822 149.22 484.021 149.397 484.169C149.582 484.317 149.848 484.391 150.196 484.391C150.529 484.391 150.788 484.317 150.973 484.169C151.165 484.014 151.306 483.814 151.395 483.57C151.483 483.326 151.535 483.071 151.55 482.804V480.408H152.282V484.924H151.672L151.55 483.914H151.528C151.491 484.04 151.413 484.191 151.295 484.369C151.176 484.547 151.006 484.702 150.784 484.835C150.57 484.968 150.292 485.035 149.952 485.035ZM154.805 485.024C154.39 485.024 154.05 484.924 153.784 484.724C153.517 484.517 153.318 484.24 153.185 483.892C153.059 483.544 152.996 483.148 152.996 482.705C152.996 482.024 153.144 481.465 153.44 481.029C153.743 480.585 154.198 480.363 154.805 480.363C155.115 480.363 155.374 480.419 155.581 480.53C155.796 480.633 155.966 480.763 156.092 480.918C156.225 481.073 156.321 481.221 156.38 481.362H156.391V480.408H157.124V484.924H156.513L156.403 484.047H156.38C156.314 484.195 156.218 484.347 156.092 484.502C155.966 484.65 155.796 484.776 155.581 484.879C155.374 484.976 155.115 485.024 154.805 485.024ZM155.082 484.391C155.541 484.391 155.87 484.24 156.07 483.936C156.277 483.633 156.38 483.226 156.38 482.716C156.38 482.168 156.273 481.75 156.059 481.462C155.851 481.173 155.526 481.029 155.082 481.029C154.594 481.029 154.242 481.192 154.028 481.517C153.821 481.835 153.717 482.231 153.717 482.705C153.717 483.2 153.824 483.607 154.039 483.925C154.253 484.236 154.601 484.391 155.082 484.391ZM159.085 484.924C158.811 484.924 158.619 484.85 158.508 484.702C158.405 484.554 158.353 484.351 158.353 484.092V480.94H157.643V480.408C157.879 480.408 158.053 480.389 158.164 480.352C158.283 480.308 158.356 480.204 158.386 480.041C158.416 479.879 158.43 479.612 158.43 479.242H159.041V480.408H160.084V480.94H159.041V484.347H160.095V484.924H159.085ZM161.586 479.919C161.423 479.919 161.312 479.879 161.253 479.797C161.201 479.708 161.175 479.598 161.175 479.464C161.175 479.353 161.201 479.257 161.253 479.176C161.312 479.087 161.423 479.043 161.586 479.043C161.749 479.043 161.856 479.087 161.908 479.176C161.967 479.257 161.997 479.353 161.997 479.464C161.997 479.598 161.967 479.708 161.908 479.797C161.856 479.879 161.749 479.919 161.586 479.919ZM161.231 484.924V480.408H161.941V484.924H161.231ZM165.023 485.035C164.298 485.035 163.754 484.82 163.392 484.391C163.037 483.955 162.859 483.4 162.859 482.727C162.852 482.046 163.029 481.491 163.392 481.062C163.762 480.626 164.306 480.404 165.023 480.396C165.733 480.396 166.27 480.611 166.632 481.04C167.002 481.462 167.187 482.024 167.187 482.727C167.187 483.163 167.109 483.555 166.954 483.903C166.799 484.251 166.562 484.528 166.244 484.735C165.926 484.935 165.519 485.035 165.023 485.035ZM165.023 484.413C165.408 484.413 165.704 484.328 165.911 484.158C166.125 483.988 166.273 483.773 166.355 483.515C166.444 483.248 166.488 482.978 166.488 482.705C166.488 482.431 166.444 482.161 166.355 481.894C166.273 481.628 166.125 481.41 165.911 481.24C165.704 481.07 165.408 480.985 165.023 480.985C164.638 480.985 164.339 481.07 164.124 481.24C163.917 481.41 163.769 481.628 163.68 481.894C163.599 482.161 163.558 482.431 163.558 482.705C163.558 482.978 163.599 483.248 163.68 483.515C163.769 483.773 163.917 483.988 164.124 484.158C164.339 484.328 164.638 484.413 165.023 484.413ZM168.053 484.924V480.408H168.663L168.785 481.528H168.807C168.815 481.491 168.848 481.414 168.907 481.295C168.966 481.177 169.055 481.051 169.174 480.918C169.299 480.777 169.462 480.659 169.662 480.563C169.862 480.459 170.117 480.408 170.427 480.408C170.82 480.408 171.127 480.478 171.348 480.618C171.578 480.759 171.748 480.948 171.859 481.184C171.97 481.414 172.04 481.661 172.07 481.928C172.099 482.194 172.114 482.449 172.114 482.693V484.924H171.426V482.693C171.426 482.205 171.341 481.809 171.171 481.506C171.008 481.203 170.683 481.051 170.194 481.051C169.862 481.051 169.588 481.133 169.373 481.295C169.166 481.451 169.015 481.661 168.918 481.928C168.83 482.187 168.785 482.472 168.785 482.782V484.924H168.053ZM174.803 485.035C174.374 485.035 174.019 484.946 173.737 484.768C173.464 484.584 173.257 484.369 173.116 484.125C172.983 483.881 172.916 483.663 172.916 483.47H173.604C173.604 483.478 173.608 483.533 173.615 483.637C173.63 483.74 173.671 483.859 173.737 483.992C173.804 484.125 173.919 484.243 174.081 484.347C174.244 484.443 174.481 484.491 174.792 484.491C175.124 484.491 175.409 484.432 175.646 484.314C175.89 484.195 176.009 484.01 176.001 483.759C176.001 483.544 175.927 483.381 175.779 483.27C175.639 483.152 175.454 483.063 175.224 483.004C174.995 482.938 174.755 482.875 174.503 482.815C174.252 482.756 174.011 482.682 173.782 482.594C173.56 482.497 173.379 482.364 173.238 482.194C173.098 482.024 173.027 481.787 173.027 481.484C173.027 481.114 173.194 480.822 173.527 480.607C173.859 480.385 174.285 480.274 174.803 480.274C175.091 480.274 175.383 480.322 175.679 480.419C175.975 480.507 176.219 480.666 176.412 480.896C176.604 481.118 176.693 481.432 176.678 481.839H176.012C176.027 481.558 175.964 481.347 175.824 481.207C175.683 481.066 175.513 480.973 175.313 480.929C175.121 480.877 174.943 480.851 174.781 480.851C174.462 480.851 174.2 480.911 173.993 481.029C173.793 481.147 173.693 481.314 173.693 481.528C173.693 481.735 173.763 481.894 173.904 482.005C174.052 482.109 174.237 482.194 174.459 482.261C174.688 482.32 174.928 482.379 175.18 482.438C175.439 482.49 175.683 482.564 175.912 482.66C176.142 482.756 176.327 482.893 176.467 483.071C176.615 483.248 176.689 483.492 176.689 483.803C176.689 484.232 176.508 484.547 176.145 484.746C175.783 484.939 175.335 485.035 174.803 485.035Z" fill="white" fill-opacity="0.6"/>
</g>
<defs>
<clipPath id="clip0_654_2322">
<rect x="13" y="10" width="255" height="548" rx="32" fill="white"/>
</clipPath>
</defs>
</svg>
